<svg xmlns="http://www.w3.org/2000/svg" viewBox="0 0 1200 680">
  <defs>
    <linearGradient id="bg" x1="0" y1="0" x2="1" y2="1">
      <stop offset="0" stop-color="#020617"/>
      <stop offset="1" stop-color="#0f172a"/>
    </linearGradient>
  </defs>
  <rect width="1200" height="680" fill="url(#bg)"/>
  <rect x="80" y="70" width="1040" height="540" rx="34" fill="#111827" stroke="#334155" stroke-width="2"/>
  <rect x="80" y="70" width="1040" height="70" rx="34" fill="#1e293b"/>
  <circle cx="125" cy="105" r="10" fill="#ef4444"/>
  <circle cx="155" cy="105" r="10" fill="#f59e0b"/>
  <circle cx="185" cy="105" r="10" fill="#22c55e"/>
  <text x="230" y="113" fill="#e5e7eb" font-family="Inter,Arial" font-size="24" font-weight="800">clase8_data_cleaning_lab.ipynb</text>
  <rect x="120" y="170" width="250" height="400" rx="24" fill="#020617" stroke="#334155"/>
  <text x="145" y="215" fill="#38bdf8" font-family="Inter,Arial" font-size="20" font-weight="900">Panel lateral</text>
  <text x="145" y="260" fill="#94a3b8" font-family="Inter,Arial" font-size="18">Archivos</text>
  <text x="145" y="300" fill="#94a3b8" font-family="Inter,Arial" font-size="18">Variables</text>
  <text x="145" y="340" fill="#94a3b8" font-family="Inter,Arial" font-size="18">Índice</text>
  <rect x="410" y="170" width="660" height="115" rx="22" fill="#020617" stroke="#334155"/>
  <text x="440" y="215" fill="#f8fafc" font-family="Inter,Arial" font-size="25" font-weight="900">Celda de texto</text>
  <text x="440" y="250" fill="#94a3b8" font-family="Inter,Arial" font-size="18">Aquí escribes títulos, explicaciones y evidencia.</text>
  <rect x="410" y="320" width="660" height="190" rx="22" fill="#020617" stroke="#38bdf8"/>
  <text x="440" y="365" fill="#f8fafc" font-family="Inter,Arial" font-size="25" font-weight="900">Celda de código</text>
  <text x="440" y="405" fill="#94a3b8" font-family="Inter,Arial" font-size="18">Aquí pegas instrucciones de Python.</text>
  <rect x="440" y="435" width="570" height="42" rx="10" fill="#0f172a"/>
  <text x="462" y="463" fill="#67e8f9" font-family="Menlo,monospace" font-size="18">import pandas as pd</text>
  <path d="M1010 455 l30 -25 l0 50 z" fill="#22c55e"/>
  <text x="85" y="650" fill="#94a3b8" font-family="Inter,Arial" font-size="22" font-weight="700">Imagen guía: interfaz básica de Google Colab</text>
</svg>
