<svg xmlns="http://www.w3.org/2000/svg" viewBox="0 0 1200 680">
  <defs>
    <linearGradient id="bg" x1="0" y1="0" x2="1" y2="1">
      <stop offset="0%" stop-color="#06111f"/>
      <stop offset="45%" stop-color="#111827"/>
      <stop offset="100%" stop-color="#0f172a"/>
    </linearGradient>
    <linearGradient id="cyan" x1="0" y1="0" x2="1" y2="1">
      <stop offset="0%" stop-color="#38bdf8"/>
      <stop offset="100%" stop-color="#22d3ee"/>
    </linearGradient>
    <linearGradient id="green" x1="0" y1="0" x2="1" y2="1">
      <stop offset="0%" stop-color="#34d399"/>
      <stop offset="100%" stop-color="#10b981"/>
    </linearGradient>
    <filter id="glow">
      <feGaussianBlur stdDeviation="6" result="blur"/>
      <feMerge>
        <feMergeNode in="blur"/>
        <feMergeNode in="SourceGraphic"/>
      </feMerge>
    </filter>
  </defs>
  <rect width="1200" height="680" fill="url(#bg)"/>
  <circle cx="1000" cy="110" r="220" fill="#0ea5e9" opacity=".12"/>
  <circle cx="130" cy="590" r="280" fill="#22c55e" opacity=".10"/>
  <g opacity=".16" stroke="#94a3b8">
    <path d="M0 120 H1200M0 240 H1200M0 360 H1200M0 480 H1200M0 600 H1200"/>
    <path d="M150 0 V680M300 0 V680M450 0 V680M600 0 V680M750 0 V680M900 0 V680M1050 0 V680"/>
  </g>
  <g transform="translate(120 120)">
    <rect width="430" height="420" rx="32" fill="#020617" stroke="#334155" stroke-width="2"/>
    <rect x="34" y="42" width="180" height="28" rx="14" fill="#ef4444" opacity=".85"/>
    <rect x="34" y="94" width="350" height="20" rx="10" fill="#64748b"/>
    <rect x="34" y="138" width="310" height="20" rx="10" fill="#64748b"/>
    <rect x="34" y="182" width="360" height="20" rx="10" fill="#f97316" opacity=".9"/>
    <rect x="34" y="226" width="260" height="20" rx="10" fill="#64748b"/>
    <rect x="34" y="270" width="330" height="20" rx="10" fill="#ef4444" opacity=".8"/>
    <rect x="34" y="314" width="290" height="20" rx="10" fill="#64748b"/>
    <text x="34" y="382" fill="#94a3b8" font-family="Inter,Arial" font-size="28" font-weight="700">Dataset sucio</text>
  </g>
  <g transform="translate(650 120)">
    <rect width="430" height="420" rx="32" fill="#020617" stroke="#22d3ee" stroke-width="2"/>
    <rect x="34" y="42" width="220" height="28" rx="14" fill="url(#green)" filter="url(#glow)"/>
    <rect x="34" y="94" width="350" height="20" rx="10" fill="#22c55e" opacity=".75"/>
    <rect x="34" y="138" width="310" height="20" rx="10" fill="#22c55e" opacity=".75"/>
    <rect x="34" y="182" width="360" height="20" rx="10" fill="#22c55e" opacity=".75"/>
    <rect x="34" y="226" width="260" height="20" rx="10" fill="#22c55e" opacity=".75"/>
    <rect x="34" y="270" width="330" height="20" rx="10" fill="#22c55e" opacity=".75"/>
    <rect x="34" y="314" width="290" height="20" rx="10" fill="#22c55e" opacity=".75"/>
    <text x="34" y="382" fill="#e2e8f0" font-family="Inter,Arial" font-size="28" font-weight="700">Dataset limpio</text>
  </g>
  <path d="M570 330 H630" stroke="url(#cyan)" stroke-width="14" stroke-linecap="round"/>
  <path d="M628 330 l-28 -26 M628 330 l-28 26" stroke="url(#cyan)" stroke-width="14" stroke-linecap="round"/>
  <text x="84" y="78" fill="#f8fafc" font-family="Inter,Arial" font-size="42" font-weight="900">Clase 8 · Data Cleaning Lab</text>
  <text x="84" y="628" fill="#94a3b8" font-family="Inter,Arial" font-size="28" font-weight="700">Limpieza y preparación de datos para Inteligencia Artificial</text>
</svg>
