<svg xmlns="http://www.w3.org/2000/svg" viewBox="0 0 1200 375"><title>Ranking antes y después del feedback</title><rect width="1200" height="375" rx="32" fill="#0a171a"/><g font-family="system-ui,sans-serif"><text x="245" y="70" fill="#a9bdba" font-size="19" font-weight="800" text-anchor="middle">ANTES</text><text x="955" y="70" fill="#55d68b" font-size="19" font-weight="800" text-anchor="middle">DESPUÉS</text><g fill="#14282c"><rect x="70" y="105" width="350" height="55" rx="14"/><rect x="70" y="180" width="285" height="55" rx="14"/><rect x="70" y="255" width="210" height="55" rx="14"/></g><g fill="#17372a"><rect x="780" y="105" width="350" height="55" rx="14"/><rect x="780" y="180" width="305" height="55" rx="14"/><rect x="780" y="255" width="250" height="55" rx="14"/></g><g fill="#f3f7f5" font-size="18" font-weight="700"><text x="95" y="140">1 · Frappé 70%</text><text x="95" y="215">2 · Combo 63%</text><text x="95" y="290">3 · Café 51%</text><text x="805" y="140">1 · Frappé 75%</text><text x="805" y="215">2 · Combo 64%</text><text x="805" y="290">3 · Café 51%</text></g><circle cx="600" cy="188" r="80" fill="#10292e" stroke="#54c9d8" stroke-width="4"/><text x="600" y="175" text-anchor="middle" font-size="44">✅</text><text x="600" y="225" fill="#54c9d8" text-anchor="middle" font-size="22" font-weight="900">FEEDBACK</text></g><path d="M445 188h65M690 188h65" stroke="#54c9d8" stroke-width="8"/><path d="m510 188-22-15v30zm245 0-22-15v30z" fill="#54c9d8"/></svg>
