<svg xmlns="http://www.w3.org/2000/svg" viewBox="0 0 600 600"><title>Dashboard del laboratorio del alumno</title><rect width="600" height="600" rx="44" fill="#091518"/><rect x="55" y="55" width="490" height="490" rx="30" fill="#101f23" stroke="#34545a" stroke-width="3"/><rect x="85" y="90" width="430" height="58" rx="15" fill="#17372a"/><circle cx="120" cy="119" r="14" fill="#55d68b"/><rect x="150" y="108" width="180" height="20" rx="10" fill="#a9bdba" opacity=".55"/><g fill="#172d31"><rect x="85" y="180" width="200" height="145" rx="20"/><rect x="315" y="180" width="200" height="145" rx="20"/><rect x="85" y="355" width="430" height="150" rx="20"/></g><path d="M120 290v-45l42-28 42 18 45-45" fill="none" stroke="#54c9d8" stroke-width="8" stroke-linecap="round" stroke-linejoin="round"/><g fill="#f3c85b"><rect x="350" y="265" width="28" height="30" rx="6"/><rect x="392" y="230" width="28" height="65" rx="6"/><rect x="434" y="200" width="28" height="95" rx="6"/></g><g fill="#20373a"><rect x="115" y="390" width="365" height="25" rx="10"/><rect x="115" y="430" width="300" height="25" rx="10"/><rect x="115" y="470" width="335" height="25" rx="10"/></g><circle cx="470" cy="462" r="40" fill="#55d68b"/><path d="m452 463 13 13 25-31" fill="none" stroke="#071316" stroke-width="9" stroke-linecap="round"/></svg>
