<svg xmlns="http://www.w3.org/2000/svg" viewBox="0 0 1200 520" role="img"><title>Caso, decisión, resultado, feedback y confianza</title><defs><linearGradient id="bg" x2="1" y2="1"><stop stop-color="#071316"/><stop offset=".55" stop-color="#10252a"/><stop offset="1" stop-color="#123522"/></linearGradient><linearGradient id="bar"><stop stop-color="#f3c85b"/><stop offset="1" stop-color="#55d68b"/></linearGradient></defs><rect width="1200" height="520" rx="36" fill="url(#bg)"/><circle cx="1040" cy="70" r="180" fill="#54c9d8" opacity=".07"/><path d="M90 305H965" stroke="#426269" stroke-width="8" stroke-linecap="round"/><g font-family="system-ui,sans-serif" text-anchor="middle"><g fill="#102126" stroke="#34545a" stroke-width="3"><rect x="45" y="185" width="180" height="210" rx="28"/><rect x="270" y="185" width="180" height="210" rx="28"/><rect x="495" y="185" width="180" height="210" rx="28"/><rect x="720" y="185" width="180" height="210" rx="28"/></g><g font-size="64"><text x="135" y="280">🌡️ 👄 🧊</text><text x="360" y="280">🥤</text><text x="585" y="280">✅</text><text x="810" y="280">↗</text></g><g fill="#a9bdba" font-size="20" font-weight="700"><text x="135" y="350">CASO</text><text x="360" y="350">DECISIÓN</text><text x="585" y="350">FEEDBACK</text><text x="810" y="350">AJUSTE</text></g><g fill="#55d68b" font-size="25" font-weight="800"><text x="135" y="105">EXPERIENCIA</text><text x="1040" y="105">CONFIANZA</text></g></g><g transform="translate(970 145)"><rect width="130" height="280" rx="65" fill="#0a1518" stroke="#54c9d8" stroke-width="5"/><rect x="35" y="55" width="60" height="185" rx="30" fill="#20373a"/><rect x="35" y="105" width="60" height="135" rx="30" fill="url(#bar)"/><circle cx="65" cy="240" r="45" fill="#55d68b"/><path d="m112 92 28-28 28 28M140 64v95" fill="none" stroke="#f3c85b" stroke-width="9" stroke-linecap="round" stroke-linejoin="round"/></g><path d="m230 305 25-15v30zm225 0 25-15v30zm225 0 25-15v30zm225 0 25-15v30z" fill="#54c9d8"/></svg>
