<svg xmlns="http://www.w3.org/2000/svg" viewBox="0 0 1200 375"><title>Panel de simulación de feedback</title><rect width="1200" height="375" rx="32" fill="#091518"/><rect x="55" y="50" width="1090" height="275" rx="28" fill="#101f23" stroke="#34545a" stroke-width="3"/><g font-family="system-ui,sans-serif"><g fill="#172d31"><rect x="90" y="95" width="220" height="85" rx="16"/><rect x="90" y="195" width="220" height="85" rx="16"/><rect x="350" y="95" width="430" height="42" rx="12"/><rect x="350" y="155" width="350" height="42" rx="12"/><rect x="350" y="215" width="390" height="42" rx="12"/></g><g fill="#54c9d8"><rect x="350" y="95" width="350" height="42" rx="12"/><rect x="350" y="155" width="285" height="42" rx="12"/><rect x="350" y="215" width="220" height="42" rx="12"/></g><text x="120" y="148" font-size="34">🥤</text><text x="175" y="148" fill="#f3f7f5" font-size="18" font-weight="800">FRAPPÉ</text><text x="120" y="248" font-size="34">☕</text><text x="175" y="248" fill="#f3f7f5" font-size="18" font-weight="800">CAFÉ</text><rect x="835" y="95" width="255" height="55" rx="14" fill="#55d68b"/><rect x="835" y="165" width="255" height="55" rx="14" fill="#f3c85b"/><rect x="835" y="235" width="255" height="55" rx="14" fill="#ff7c79"/><g fill="#071316" font-size="17" font-weight="900" text-anchor="middle"><text x="962" y="130">FEEDBACK +</text><text x="962" y="200">FEEDBACK PARCIAL</text><text x="962" y="270">FEEDBACK −</text></g></g></svg>
